<svg version="1.1" id="Layer_1" xmlns="http://www.w3.org/2000/svg" xmlns:xlink="http://www.w3.org/1999/xlink" x="0px" y="0px"
	 width="100%" viewBox="0 0 128 128" enable-background="new 0 0 128 128" xml:space="preserve">
<path fill="#9CCB5B" opacity="1.000000" stroke="none" 
	d="
M1.000001,81.000000 
	C1.000000,70.645775 1.000000,60.291546 1.317427,49.784286 
	C3.734580,44.616924 5.438620,39.389275 8.005972,34.627048 
	C16.772936,18.365036 30.013767,7.558607 48.048458,2.851905 
	C48.496246,2.735041 48.688545,1.639235 49.000000,1.000000 
	C59.354229,1.000000 69.708458,1.000000 80.213432,1.312118 
	C81.956436,2.284484 83.528763,2.998520 85.143959,3.596845 
	C106.476845,11.499305 121.001228,25.805042 127.147919,48.068165 
	C127.271332,48.515148 128.361084,48.695339 129.000000,49.000000 
	C129.000000,59.354229 129.000000,69.708458 128.683472,80.214615 
	C127.923279,81.017548 127.238495,81.612541 127.072304,82.328003 
	C124.775932,92.213432 119.659813,100.720879 113.137085,108.163155 
	C104.946220,117.508728 94.526878,123.769371 82.434525,127.087616 
	C81.827156,127.254288 81.472389,128.341446 81.000000,129.000000 
	C70.645775,129.000000 60.291546,129.000000 49.785378,128.683472 
	C48.034767,127.710098 46.457245,126.995056 44.834225,126.405205 
	C23.586594,118.683243 9.166017,104.481331 2.915053,82.442307 
	C2.741314,81.829758 1.658769,81.474976 1.000001,81.000000 
M92.255936,109.680008 
	C92.327087,109.595154 92.471619,109.451553 92.458015,109.434555 
	C92.325684,109.269272 92.166885,109.125168 91.714165,108.346268 
	C87.147560,106.552307 82.580963,104.758347 78.004562,102.082916 
	C78.002769,99.724991 78.000977,97.367058 78.933578,94.926064 
	C86.921318,94.915390 94.909081,94.914932 102.896782,94.890976 
	C109.914093,94.869934 111.096268,93.734146 111.102745,86.910538 
	C111.118538,70.269203 111.119530,53.627831 111.102104,36.986500 
	C111.095184,30.369560 109.869080,29.118731 103.292480,29.114000 
	C77.331993,29.095327 51.371071,29.180855 25.411345,29.038589 
	C20.751801,29.013054 18.794529,30.557066 18.834677,35.358425 
	C18.983559,53.163425 18.963060,70.970863 18.845991,88.776337 
	C18.816677,93.234604 20.508957,95.046326 25.047586,94.956436 
	C34.028267,94.778595 43.016285,94.970993 52.000282,95.894585 
	C51.995541,98.251129 51.990803,100.607674 51.179379,103.001503 
	C46.768822,104.638901 42.358265,106.276306 37.526539,108.228134 
	C37.709042,108.730247 37.891541,109.232361 38.996048,109.839706 
	C56.638355,109.790398 74.280663,109.741096 92.255936,109.680008 
z"/>
<path fill="#000000" opacity="1.000000" stroke="none" 
	d="
M129.000000,48.531342 
	C128.361084,48.695339 127.271332,48.515148 127.147919,48.068165 
	C121.001228,25.805042 106.476845,11.499305 85.143959,3.596845 
	C83.528763,2.998520 81.956436,2.284484 80.682091,1.312118 
	C96.926735,1.000000 112.853462,1.000000 129.000000,1.000000 
	C129.000000,16.686876 129.000000,32.374779 129.000000,48.531342 
z"/>
<path fill="#000000" opacity="1.000000" stroke="none" 
	d="
M81.468658,129.000000 
	C81.472389,128.341446 81.827156,127.254288 82.434525,127.087616 
	C94.526878,123.769371 104.946220,117.508728 113.137085,108.163155 
	C119.659813,100.720879 124.775932,92.213432 127.072304,82.328003 
	C127.238495,81.612541 127.923279,81.017548 128.683472,80.683273 
	C129.000000,96.926735 129.000000,112.853462 129.000000,129.000000 
	C113.313126,129.000000 97.625221,129.000000 81.468658,129.000000 
z"/>
<path fill="#000000" opacity="1.000000" stroke="none" 
	d="
M1.000001,81.468658 
	C1.658769,81.474976 2.741314,81.829758 2.915053,82.442307 
	C9.166017,104.481331 23.586594,118.683243 44.834225,126.405205 
	C46.457245,126.995056 48.034767,127.710098 49.316719,128.683472 
	C33.073265,129.000000 17.146532,129.000000 1.000000,129.000000 
	C1.000000,113.313126 1.000000,97.625221 1.000001,81.468658 
z"/>
<path fill="#000000" opacity="1.000000" stroke="none" 
	d="
M48.531342,1.000000 
	C48.688545,1.639235 48.496246,2.735041 48.048458,2.851905 
	C30.013767,7.558607 16.772936,18.365036 8.005972,34.627048 
	C5.438620,39.389275 3.734580,44.616924 1.317427,49.315628 
	C1.000000,33.073269 1.000000,17.146536 1.000000,1.000000 
	C16.686876,1.000000 32.374779,1.000000 48.531342,1.000000 
z"/>
<path fill="#404A4C" opacity="1.000000" stroke="none" 
	d="
M52.001266,95.010323 
	C43.016285,94.970993 34.028267,94.778595 25.047586,94.956436 
	C20.508957,95.046326 18.816677,93.234604 18.845991,88.776337 
	C18.963060,70.970863 18.983559,53.163425 18.834677,35.358425 
	C18.794529,30.557066 20.751801,29.013054 25.411345,29.038589 
	C51.371071,29.180855 77.331993,29.095327 103.292480,29.114000 
	C109.869080,29.118731 111.095184,30.369560 111.102104,36.986500 
	C111.119530,53.627831 111.118538,70.269203 111.102745,86.910538 
	C111.096268,93.734146 109.914093,94.869934 102.896782,94.890976 
	C94.909081,94.914932 86.921318,94.915390 78.128479,94.730240 
	C68.882683,94.693054 60.441975,94.851692 52.001266,95.010323 
M97.417770,34.295799 
	C73.040680,34.295799 48.663589,34.295799 24.255754,34.295799 
	C24.255754,53.178173 24.255754,71.109833 24.255754,89.328262 
	C51.542549,89.328262 78.572845,89.328262 105.637642,89.328262 
	C105.637642,70.899887 105.637642,52.847317 105.637642,34.296207 
	C102.988541,34.296207 100.687157,34.296207 97.417770,34.295799 
z"/>
<path fill="#404A4C" opacity="1.000000" stroke="none" 
	d="
M78.014366,102.964386 
	C82.580963,104.758347 87.147560,106.552307 91.829712,108.838318 
	C91.945251,109.330368 91.922974,109.691788 91.922974,109.691788 
	C74.280663,109.741096 56.638355,109.790398 38.520023,109.483688 
	C38.011902,108.723015 37.979805,108.318359 37.947708,107.913704 
	C42.358265,106.276306 46.768822,104.638901 51.566719,103.007378 
	C51.954063,103.013252 51.999077,103.050537 52.330177,103.299011 
	C61.107830,103.381828 69.554382,103.216171 78.023666,103.032013 
	C78.046402,103.013512 78.014366,102.964386 78.014366,102.964386 
z"/>
<path fill="#676767" opacity="1.000000" stroke="none" 
	d="
M52.000774,95.452454 
	C60.441975,94.851692 68.882683,94.693054 77.661285,94.771774 
	C78.000977,97.367058 78.002769,99.724991 78.009460,102.523651 
	C78.014366,102.964386 78.046402,103.013512 77.556015,103.019547 
	C68.710114,103.033897 60.354595,103.042221 51.999077,103.050537 
	C51.999077,103.050537 51.954063,103.013252 51.970062,102.988739 
	C51.990803,100.607674 51.995541,98.251129 52.000774,95.452454 
z"/>
<path fill="#52644F" opacity="1.000000" stroke="none" 
	d="
M37.737122,108.070923 
	C37.979805,108.318359 38.011902,108.723015 38.059021,109.431076 
	C37.891541,109.232361 37.709042,108.730247 37.737122,108.070923 
z"/>
<path fill="#52644F" opacity="1.000000" stroke="none" 
	d="
M92.089455,109.685898 
	C91.922974,109.691788 91.945251,109.330368 91.980438,109.152695 
	C92.166885,109.125168 92.325684,109.269272 92.458015,109.434555 
	C92.471619,109.451553 92.327087,109.595154 92.089455,109.685898 
z"/>
<path fill="#00A8EA" opacity="1.000000" stroke="none" 
	d="
M97.901772,34.296005 
	C100.687157,34.296207 102.988541,34.296207 105.637642,34.296207 
	C105.637642,52.847317 105.637642,70.899887 105.637642,89.328262 
	C78.572845,89.328262 51.542549,89.328262 24.255754,89.328262 
	C24.255754,71.109833 24.255754,53.178173 24.255754,34.295799 
	C48.663589,34.295799 73.040680,34.295799 97.901772,34.296005 
M43.973480,62.144135 
	C44.040024,55.857384 39.585052,60.366501 37.276108,58.774525 
	C37.276108,66.219765 37.276108,73.036972 37.276108,79.832748 
	C38.699104,79.832748 39.844513,79.832748 41.808784,79.958015 
	C42.538498,78.726410 43.835350,77.521721 43.895294,76.258339 
	C44.104263,71.854195 43.885216,67.429741 43.973480,62.144135 
M53.149990,57.119278 
	C53.149990,55.560444 53.149990,54.001614 53.149990,52.166077 
	C50.784714,52.166077 48.893440,52.166077 46.503319,52.143524 
	C46.134621,52.333473 46.035637,52.617443 46.088604,53.926586 
	C46.127857,62.284344 46.167110,70.642105 46.150990,79.496277 
	C46.150990,79.496277 46.498981,79.854599 46.498981,79.854599 
	C46.498981,79.854599 46.998039,79.833618 47.738689,79.968246 
	C48.487202,79.923103 49.235714,79.877968 50.806816,79.920441 
	C51.608891,78.695778 53.067032,77.489449 53.101868,76.243332 
	C53.271816,70.164093 53.061642,64.074226 53.149990,57.119278 
M59.787987,79.964409 
	C60.758148,78.976471 62.546085,78.004822 62.566135,76.997971 
	C62.699272,70.312912 62.453758,63.620319 62.562824,56.047260 
	C62.562824,52.457844 62.562824,48.868427 62.562824,45.322952 
	C59.885246,45.322952 57.814293,45.322952 55.358616,45.322952 
	C55.358616,56.253204 55.279541,66.867393 55.515049,77.474602 
	C55.533070,78.286354 57.774117,79.048752 59.787987,79.964409 
M77.889389,67.329269 
	C76.613441,67.937721 75.337494,68.546165 74.061546,69.154610 
	C75.354553,69.726982 76.636665,70.763618 77.942375,70.794228 
	C84.924370,70.957893 91.913460,70.933395 98.896790,70.800476 
	C99.920151,70.780998 100.925842,69.832695 101.939705,69.314156 
	C100.882576,68.653374 99.839958,67.449226 98.765945,67.420547 
	C92.117470,67.243004 85.461945,67.329781 77.889389,67.329269 
M92.429138,60.328541 
	C87.277626,60.329967 82.121704,60.219254 76.978096,60.421646 
	C75.867813,60.465332 74.801895,61.636864 73.715546,62.288887 
	C73.957359,62.735767 74.199173,63.182652 74.440987,63.629532 
	C83.521584,63.629532 92.602180,63.629532 101.682770,63.629532 
	C101.903824,63.239620 102.124878,62.849709 102.345932,62.459797 
	C101.358788,61.753014 100.445457,60.619030 99.368355,60.432934 
	C97.431442,60.098289 95.396286,60.332245 92.429138,60.328541 
M99.081276,56.869442 
	C100.033463,56.290859 100.985649,55.712276 101.937836,55.133698 
	C100.987534,54.533676 100.046776,53.431602 99.085403,53.413307 
	C91.604149,53.270924 84.117096,53.258610 76.637077,53.432117 
	C75.628334,53.455524 74.648804,54.738281 73.655754,55.437893 
	C73.871964,55.915817 74.088173,56.393745 74.304382,56.871670 
	C82.254311,56.871670 90.204231,56.871670 99.081276,56.869442 
M33.246262,66.095688 
	C31.314604,66.095688 29.382946,66.095688 27.000067,66.095688 
	C27.000067,69.628082 26.802967,72.897774 27.095095,76.123154 
	C27.215384,77.451256 28.388033,78.684052 29.082016,79.960197 
	C30.376720,78.920578 32.491817,78.081886 32.805290,76.801949 
	C33.600735,73.554131 33.588730,70.108559 33.246262,66.095688 
z"/>
<path fill="#67715F" opacity="1.000000" stroke="none" 
	d="
M52.330177,103.299011 
	C60.354595,103.042221 68.710114,103.033897 77.533279,103.038048 
	C69.554382,103.216171 61.107830,103.381828 52.330177,103.299011 
z"/>
<path fill="#FFFFFF" opacity="1.000000" stroke="none" 
	d="
M58.981865,79.834091 
	C57.774117,79.048752 55.533070,78.286354 55.515049,77.474602 
	C55.279541,66.867393 55.358616,56.253204 55.358616,45.322952 
	C57.814293,45.322952 59.885246,45.322952 62.562824,45.322952 
	C62.562824,48.868427 62.562824,52.457844 62.163330,56.704765 
	C60.836510,64.852875 59.909187,72.343483 58.981865,79.834091 
z"/>
<path fill="#E8DCCA" opacity="1.000000" stroke="none" 
	d="
M46.206367,78.999863 
	C46.167110,70.642105 46.127857,62.284344 46.302864,53.345978 
	C46.709553,52.590496 46.871235,52.390732 47.002171,52.166077 
	C48.893440,52.166077 50.784714,52.166077 53.149990,52.166077 
	C53.149990,54.001614 53.149990,55.560444 52.837425,57.880123 
	C51.677986,65.704926 50.831108,72.768875 49.984230,79.832832 
	C49.235714,79.877968 48.487202,79.923103 47.259384,79.741150 
	C46.619106,79.308891 46.427872,79.137497 46.206367,78.999863 
z"/>
<path fill="#F7A90B" opacity="1.000000" stroke="none" 
	d="
M40.989922,79.832748 
	C39.844513,79.832748 38.699104,79.832748 37.276108,79.832748 
	C37.276108,73.036972 37.276108,66.219765 37.276108,58.774525 
	C39.585052,60.366501 44.040024,55.857384 43.702087,62.899216 
	C42.617104,69.047119 41.803513,74.439934 40.989922,79.832748 
z"/>
<path fill="#FFFFFF" opacity="1.000000" stroke="none" 
	d="
M78.349075,67.329025 
	C85.461945,67.329781 92.117470,67.243004 98.765945,67.420547 
	C99.839958,67.449226 100.882576,68.653374 101.939705,69.314156 
	C100.925842,69.832695 99.920151,70.780998 98.896790,70.800476 
	C91.913460,70.933395 84.924370,70.957893 77.942375,70.794228 
	C76.636665,70.763618 75.354553,69.726982 74.061546,69.154610 
	C75.337494,68.546165 76.613441,67.937721 78.349075,67.329025 
z"/>
<path fill="#FFFFFF" opacity="1.000000" stroke="none" 
	d="
M92.915657,60.328590 
	C95.396286,60.332245 97.431442,60.098289 99.368355,60.432934 
	C100.445457,60.619030 101.358788,61.753014 102.345932,62.459797 
	C102.124878,62.849709 101.903824,63.239620 101.682770,63.629532 
	C92.602180,63.629532 83.521584,63.629532 74.440987,63.629532 
	C74.199173,63.182652 73.957359,62.735767 73.715546,62.288887 
	C74.801895,61.636864 75.867813,60.465332 76.978096,60.421646 
	C82.121704,60.219254 87.277626,60.329967 92.915657,60.328590 
z"/>
<path fill="#FFFFFF" opacity="1.000000" stroke="none" 
	d="
M98.617722,56.870556 
	C90.204231,56.871670 82.254311,56.871670 74.304382,56.871670 
	C74.088173,56.393745 73.871964,55.915817 73.655754,55.437893 
	C74.648804,54.738281 75.628334,53.455524 76.637077,53.432117 
	C84.117096,53.258610 91.604149,53.270924 99.085403,53.413307 
	C100.046776,53.431602 100.987534,54.533676 101.937836,55.133698 
	C100.985649,55.712276 100.033463,56.290859 98.617722,56.870556 
z"/>
<path fill="#FDEF34" opacity="1.000000" stroke="none" 
	d="
M33.573143,66.418930 
	C33.588730,70.108559 33.600735,73.554131 32.805290,76.801949 
	C32.491817,78.081886 30.376720,78.920578 29.082016,79.960197 
	C28.388033,78.684052 27.215384,77.451256 27.095095,76.123154 
	C26.802967,72.897774 27.000067,69.628082 27.000067,66.095688 
	C29.382946,66.095688 31.314604,66.095688 33.573143,66.418930 
z"/>
<path fill="#ECECEC" opacity="1.000000" stroke="none" 
	d="
M59.384926,79.899246 
	C59.909187,72.343483 60.836510,64.852875 62.047619,57.146225 
	C62.453758,63.620319 62.699272,70.312912 62.566135,76.997971 
	C62.546085,78.004822 60.758148,78.976471 59.384926,79.899246 
z"/>
<path fill="#D7CBBB" opacity="1.000000" stroke="none" 
	d="
M50.395523,79.876633 
	C50.831108,72.768875 51.677986,65.704926 52.755402,58.314545 
	C53.061642,64.074226 53.271816,70.164093 53.101868,76.243332 
	C53.067032,77.489449 51.608891,78.695778 50.395523,79.876633 
z"/>
<path fill="#E49D0D" opacity="1.000000" stroke="none" 
	d="
M41.399353,79.895386 
	C41.803513,74.439934 42.617104,69.047119 43.629776,63.333656 
	C43.885216,67.429741 44.104263,71.854195 43.895294,76.258339 
	C43.835350,77.521721 42.538498,78.726410 41.399353,79.895386 
z"/>
<path fill="#CFD7CE" opacity="1.000000" stroke="none" 
	d="
M46.178680,79.248070 
	C46.427872,79.137497 46.619106,79.308891 46.889061,79.673843 
	C46.998039,79.833618 46.498981,79.854599 46.498981,79.854599 
	C46.498981,79.854599 46.150990,79.496277 46.178680,79.248070 
z"/>
<path fill="#CFD7CE" opacity="1.000000" stroke="none" 
	d="
M46.752747,52.154800 
	C46.871235,52.390732 46.709553,52.590496 46.361744,52.880398 
	C46.035637,52.617443 46.134621,52.333473 46.752747,52.154800 
z"/>
</svg>